<?xml version="1.0" encoding="UTF-8" standalone="no"?>
<!-- Created with Inkscape (http://www.inkscape.org/) -->

<svg
   xmlns:dc="http://purl.org/dc/elements/1.1/"
   xmlns:cc="http://creativecommons.org/ns#"
   xmlns:rdf="http://www.w3.org/1999/02/22-rdf-syntax-ns#"
   xmlns:svg="http://www.w3.org/2000/svg"
   xmlns="http://www.w3.org/2000/svg"
   xmlns:sodipodi="http://sodipodi.sourceforge.net/DTD/sodipodi-0.dtd"
   xmlns:inkscape="http://www.inkscape.org/namespaces/inkscape"
   width="96.58297mm"
   height="71.615013mm"
   viewBox="0 0 96.58297 71.615013"
   version="1.1"
   id="svg607"
   inkscape:version="0.92.5 (2060ec1f9f, 2020-04-08)"
   sodipodi:docname="contact.svg">
  <defs
     id="defs601" />
  <sodipodi:namedview
     id="base"
     pagecolor="#ffffff"
     bordercolor="#666666"
     borderopacity="1.0"
     inkscape:pageopacity="0.0"
     inkscape:pageshadow="2"
     inkscape:zoom="0.35"
     inkscape:cx="188.23329"
     inkscape:cy="-64.664554"
     inkscape:document-units="mm"
     inkscape:current-layer="layer1"
     showgrid="false"
     inkscape:window-width="1366"
     inkscape:window-height="711"
     inkscape:window-x="0"
     inkscape:window-y="0"
     inkscape:window-maximized="1" />
  <metadata
     id="metadata604">
    <rdf:RDF>
      <cc:Work
         rdf:about="">
        <dc:format>image/svg+xml</dc:format>
        <dc:type
           rdf:resource="http://purl.org/dc/dcmitype/StillImage" />
        <dc:title></dc:title>
      </cc:Work>
    </rdf:RDF>
  </metadata>
  <g
     inkscape:label="Layer 1"
     inkscape:groupmode="layer"
     id="layer1"
     transform="translate(-56.029941,-60.109158)">
    <path
       inkscape:connector-curvature="0"
       style="fill:#0c1b3c;stroke-width:0.26458332"
       d="m 106.59987,73.348704 0.83396,-1.982126 c 0,0 1.54279,-1.627531 0.66675,-2.941214 -0.87603,-1.315111 -4.58893,-1.627531 -5.40253,3.170819 0,0 -1.31312,0.04215 -1.54278,1.313657 -0.22939,1.272989 0.9181,2.107115 1.27265,3.045989 0.35454,0.938741 1.14749,1.27291 1.14749,1.27291 l 1.48035,0.229659 z"
       id="path2" />
    <path
       inkscape:connector-curvature="0"
       style="fill:#e9928b;stroke-width:0.26458332"
       d="m 97.610912,100.03159 c 0,0 0.87604,1.39779 1.08506,2.14921 0.20928,0.75115 0.39661,0.98081 0.22966,1.12607 -0.16722,0.14684 -0.58394,-0.60431 -0.87604,-0.98081 -0.2921,-0.37624 -0.33417,1.00118 -0.33417,1.50256 0,0.50139 0.2413,1.39806 -0.0304,1.41844 -0.27173,0.0204 -0.97049,-1.14803 -1.22026,-1.62772 -0.24976,-0.47943 -0.13811,-3.58775 -0.13811,-3.58775 z"
       id="path4" />
    <path
       inkscape:connector-curvature="0"
       style="fill:#ffab40;stroke-width:0.26458332"
       d="m 99.874162,127.99963 0.625998,0.46938 c 0,0 0.46937,1.81504 0.25003,2.5183 h -7.414418 c 0,0 0.71914,-1.0332 2.19049,-1.49384 1.47029,-0.46222 1.90897,-0.61754 2.12672,-1.02446 0.21934,-0.40693 2.22118,-0.46938 2.22118,-0.46938 z"
       id="path6" />
    <path
       inkscape:connector-curvature="0"
       style="fill:#ffab40;stroke-width:0.26458332"
       d="m 111.66822,127.7496 -0.53154,0.71914 c 0,0 -0.6567,1.5957 -0.37492,2.51831 h 6.19416 c 0,0 -0.0945,-1.0332 -1.1258,-1.49384 -1.03267,-0.46196 -1.93913,-1.02447 -1.93913,-1.02447 z"
       id="path8" />
    <path
       inkscape:connector-curvature="0"
       style="fill:#ffffff;stroke-width:0.26458332"
       d="m 93.335772,130.9889 h 7.414418 v 0.73527 h -7.414418 z"
       id="path10" />
    <path
       inkscape:connector-curvature="0"
       style="fill:#ffffff;stroke-width:0.26458332"
       d="m 110.76044,130.9889 h 6.19416 v 0.73527 h -6.19416 z"
       id="path12" />
    <path
       inkscape:connector-curvature="0"
       style="fill:#e9928b;stroke-width:0.26458332"
       d="m 97.652982,128.46901 h 2.847178 l 0.19764,-1.3298 0.2077,-1.39356 -3.033178,-0.43736 -0.12779,1.83092 z"
       id="path14" />
    <path
       inkscape:connector-curvature="0"
       style="fill:#e9928b;stroke-width:0.26458332"
       d="m 110.76044,125.80941 0.18732,1.32954 0.18892,1.32953 h 2.75272 l -0.17277,-1.32953 -0.17145,-1.32954 z"
       id="path16" />
    <path
       inkscape:connector-curvature="0"
       style="fill:#de6667;stroke-width:0.26458332"
       d="m 113.54518,125.80941 h -2.78474 l 0.18732,1.32954 h 2.76887 z"
       id="path18" />
    <path
       inkscape:connector-curvature="0"
       style="fill:#de6667;stroke-width:0.26458332"
       d="m 97.744532,127.13921 h 2.953268 l 0.2077,-1.39356 -3.033178,-0.43736 z"
       id="path20" />
    <path
       inkscape:connector-curvature="0"
       style="fill:#5f6386;stroke-width:0.26458332"
       d="m 96.964532,126.46637 h 4.442088 c 0,0 3.44144,-12.26767 3.81609,-14.02159 0.37491,-1.75101 1.66926,-5.61208 1.66926,-5.61208 l 3.33666,19.63209 h 3.91795 c 0,0 0.16404,-9.45118 0,-12.58147 -0.13071,-2.49952 -0.79614,-10.4685 -1.4732,-14.437253 -0.17119,-1.001184 -0.34264,-1.74678 -0.50536,-2.086769 -0.81359,-1.689894 -10.7614,1.939925 -10.7614,1.939925 0,0 -0.0683,0.385233 -0.186,1.053567 -0.38047,2.15371 -1.281108,7.23847 -2.109258,11.77793 -1.08214,5.94783 -2.14683,14.33565 -2.14683,14.33565 z"
       id="path22" />
    <path
       inkscape:connector-curvature="0"
       style="fill:#4a4e73;stroke-width:0.26458332"
       d="m 106.89197,106.83403 1.49198,-5.27818 c 0,0 1.53247,2.921 1.09511,5.27818 -0.43868,2.3569 1.34091,3.22447 0.0786,5.73696 -1.26233,2.51407 0.55483,4.4323 -0.66966,6.00313 z"
       id="path24" />
    <path
       inkscape:connector-curvature="0"
       style="fill:#4a4e73;stroke-width:0.26458332"
       d="m 101.22089,100.35597 c 1.17501,0.25268 2.62043,0.25268 4.3725,-0.23416 3.97431,-1.102781 6.07483,-0.940062 7.08157,-0.674156 -0.17145,-1.001183 -0.3429,-1.746779 -0.50562,-2.086769 -0.81332,-1.689893 -10.76113,1.939925 -10.76113,1.939925 0,0 -0.0699,0.386557 -0.18732,1.05516 z"
       id="path26" />
    <path
       inkscape:connector-curvature="0"
       style="fill:#e9928b;stroke-width:0.26458332"
       d="m 116.64239,75.9553 c 0,0 0.24977,-1.297649 -0.31247,-1.967548 -0.56224,-0.669925 -1.90289,0.372004 -1.90289,0.372004 0,0 -0.86862,0.93435 -0.42121,1.811973 0.44741,0.87921 2.63657,-0.216429 2.63657,-0.216429 z"
       id="path28" />
    <path
       inkscape:connector-curvature="0"
       style="fill:#7dc4be;stroke-width:0.26458332"
       d="m 99.516702,86.744214 c 0.544778,3.159125 1.438278,6.675703 1.326358,8.23939 -0.2077,2.921 -0.33417,4.006321 -0.50112,4.548452 -0.16563,0.543454 2.46063,1.001184 5.29775,0 1.3671,-0.483923 3.10436,-0.781844 4.5339,-0.962025 1.53829,-0.191823 2.72362,-0.247121 2.72362,-0.247121 0,0 -0.79322,-4.215606 -1.04298,-6.427258 -0.25136,-2.211652 0.0145,-4.75615 0.0145,-4.75615 0,0 0.001,0.0013 0.004,0.0042 0.12197,0.09446 3.225,2.467504 4.8215,0.930011 0.23098,-0.22225 0.40534,-0.531813 0.53446,-0.905404 1.04748,-3.038476 -0.95436,-10.376959 -0.95436,-10.376959 l -2.37807,0.334169 c 0,0 0.33417,5.716852 0.12515,5.758921 -0.20797,0.04207 -2.46089,-2.002367 -3.54595,-2.795853 -0.60722,-0.444764 -1.6301,-0.706172 -2.70774,-0.822589 -0.84561,-0.08864 -1.72456,-0.08705 -2.4638,-0.01297 0,0 -1.0967,0.02461 -2.41591,0.307975 -1.05172,0.223838 -2.24288,0.611717 -3.131878,1.277409 -0.92683,0.697441 -0.71464,3.166533 -0.23971,5.905764 z"
       id="path30" />
    <g
       transform="matrix(-0.26458333,0,0,0.26458333,187.04008,48.644743)"
       style="opacity:0.65"
       id="g34">
      <path
         style="opacity:0.65;fill:#379690"
         inkscape:connector-curvature="0"
         d="m 327.673,192.329 c 0.626,2.054 -9.301,3.784 -20.023,0 -5.167,-1.829 -11.733,-2.955 -17.136,-3.636 1.982,-2.472 5.37,-4.976 12.408,-7.058 17.262,-5.113 0.785,-13.901 10.69,-19.657 9.905,-5.75 10.745,-23.353 10.745,-23.353 l 6.435,5.366 c -2.059,11.94 -5.436,25.232 -5.013,31.141 0.79,11.045 1.263,15.143 1.894,17.197 z"
         id="path32" />
    </g>
    <path
       inkscape:connector-curvature="0"
       style="fill:#ffffff;stroke-width:0.26458332"
       d="m 102.89147,79.560777 c 1.15622,2.163762 4.43203,4.055798 4.43203,4.055798 0.56489,-1.634861 0.50244,-3.579284 0.44741,-4.352396 -0.84561,-0.08864 -1.72429,-0.08705 -2.4638,-0.01297 0,0.0013 -1.0967,0.02619 -2.41564,0.309563 z"
       id="path36" />
    <path
       inkscape:connector-curvature="0"
       style="fill:#7dc4be;stroke-width:0.26458332"
       d="m 101.34418,80.671233 c -0.57097,-0.635 -1.751798,-0.08282 -3.211778,2.0447 -1.45997,2.12725 -2.71065,6.842919 -2.96201,8.470371 -0.24976,1.627717 0.12489,7.219421 0.91811,9.639036 l 2.13095,-0.16722 c 0,0 0.53896,-8.011316 0.62177,-8.553447 0.0828,-0.541867 1.794138,-4.840552 2.502958,-7.177088 0.70882,-2.3368 0.75115,-3.422385 0,-4.256352 z"
       id="path38" />
    <path
       inkscape:connector-curvature="0"
       style="fill:#e9928b;stroke-width:0.26458332"
       d="m 103.577,79.56501 c 0,0.31406 0.45879,0.854604 1.58485,1.06389 1.12581,0.207698 2.50296,-0.604573 2.08598,-1.148027 -0.15558,-0.203465 -0.25135,-0.607484 -0.30798,-1.034786 -0.096,-0.713581 -0.0886,-1.489339 -0.0886,-1.489339 0,0 -2.43892,-2.274332 -2.41882,-1.105959 0.022,1.1684 -0.85407,1.377686 -0.85407,1.377686 0.28919,1.293283 -0.001,2.024062 -0.001,2.336535 z"
       id="path40" />
    <path
       inkscape:connector-curvature="0"
       style="fill:#de6667;stroke-width:0.26458332"
       d="m 104.43108,75.850789 c 0.65087,1.640681 1.67349,2.320661 2.50877,2.595298 -0.096,-0.713581 -0.0886,-1.489604 -0.0886,-1.489604 0,0 -2.44051,-2.272665 -2.42014,-1.105694 z"
       id="path42" />
    <path
       inkscape:connector-curvature="0"
       style="fill:#8fb9cf;stroke-width:0.26458332"
       d="m 113.46977,74.623123 4.34472,5.594614 c 0.0595,0.07699 0.14685,0.123561 0.23681,0.135202 0.0902,0.01164 0.186,-0.01164 0.26299,-0.0725 0.64215,-0.500058 0.7583,-1.425571 0.26009,-2.067979 l -3.65945,-4.712652 z"
       id="path44" />
    <path
       inkscape:connector-curvature="0"
       style="fill:#7a9db0;stroke-width:0.26458332"
       d="m 113.46951,74.623017 4.34498,5.59472 c 0.0595,0.07699 0.14685,0.123561 0.23681,0.135202 0.29792,-0.504296 0.27463,-1.161256 -0.1061,-1.650735 l -3.65919,-4.712759 z"
       id="path46" />
    <path
       inkscape:connector-curvature="0"
       style="fill:#8fb9cf;stroke-width:0.26458332"
       d="m 111.52455,74.22765 c 0.63897,0.822484 1.33192,1.353 1.54835,1.185783 0.21643,-0.16854 -0.12621,-0.97073 -0.76544,-1.794669 -0.63924,-0.82251 -1.33218,-1.352894 -1.54861,-1.185783 -0.21643,0.167111 0.12647,0.972159 0.7657,1.794669 z"
       id="path48" />
    <path
       inkscape:connector-curvature="0"
       style="fill:#8fb9cf;stroke-width:0.26458332"
       d="m 113.44702,70.334888 2.31801,2.984844 -2.69346,2.093172 -2.31801,-2.984712 z"
       id="path50" />
    <path
       inkscape:connector-curvature="0"
       style="fill:#7a9db0;stroke-width:0.26458332"
       d="m 112.19713,73.955976 1.57453,-1.223566 c 0.0886,-0.06829 0.10478,-0.194733 0.0349,-0.283369 -0.0683,-0.08864 -0.19473,-0.104616 -0.2831,-0.03487 l -1.5748,1.223566 c -0.0886,0.06829 -0.10451,0.194733 -0.0349,0.283369 0.0683,0.08718 0.19605,0.103161 0.28337,0.03487 z"
       id="path52" />
    <path
       inkscape:connector-curvature="0"
       style="fill:#7a9db0;stroke-width:0.26458332"
       d="m 111.61319,73.075416 1.57454,-1.223566 c 0.0886,-0.06829 0.10477,-0.194733 0.0349,-0.283368 -0.0683,-0.08864 -0.19474,-0.104643 -0.28337,-0.03487 l -1.57454,1.223566 c -0.0886,0.06829 -0.10451,0.194733 -0.0349,0.283369 0.0683,0.08718 0.19606,0.103161 0.28337,0.03487 z"
       id="path54" />
    <path
       inkscape:connector-curvature="0"
       style="fill:#7a9db0;stroke-width:0.26458332"
       d="m 112.89563,74.726231 1.5748,-1.223566 c 0.0886,-0.06832 0.10451,-0.194733 0.0349,-0.283395 -0.0683,-0.08864 -0.19474,-0.104616 -0.28337,-0.03487 l -1.57454,1.223592 c -0.0886,0.06829 -0.10477,0.194707 -0.0349,0.283369 0.0683,0.08718 0.19606,0.103161 0.28311,0.03487 z"
       id="path56" />
    <path
       inkscape:connector-curvature="0"
       style="fill:#b2d3e4;stroke-width:0.26458332"
       d="m 114.21775,72.133896 0.003,0.0044 c 0.0915,0.119168 0.18441,0.23106 0.27728,0.335677 0.10769,0.120623 0.2122,0.23106 0.31539,0.331337 0.42862,0.414153 0.80486,0.629232 0.95302,0.51443 l 0.004,0.0058 11.5443,-4.275216 -6.87096,-8.848355 -6.99611,10.132959 0.004,0.0058 c -0.12912,0.100251 -0.0579,0.430133 0.1569,0.854445 0.0452,0.08866 0.096,0.181663 0.15398,0.277548 0.0595,0.100277 0.12515,0.203465 0.19765,0.308081 0.0799,0.116258 0.16563,0.235426 0.25717,0.353113 z"
       id="path58" />
    <path
       inkscape:connector-curvature="0"
       style="opacity:0.15;fill:#ffffff;stroke-width:0.26458332"
       d="m 114.21748,72.133764 0.003,0.0044 9.41785,-7.074058 -1.16655,-1.501113 -8.51112,8.220577 c 0.0799,0.113347 0.16563,0.232516 0.25691,0.350229 z"
       id="path60" />
    <path
       inkscape:connector-curvature="0"
       style="opacity:0.15;fill:#ffffff;stroke-width:0.26458332"
       d="m 114.49979,72.473912 c 0.10743,0.120624 0.21194,0.231061 0.31512,0.331338 l 11.06064,-5.585989 -1.72428,-1.238118 z"
       id="path62" />
    <path
       inkscape:connector-curvature="0"
       style="opacity:0.15;fill:#ffffff;stroke-width:0.26458332"
       d="m 113.76319,71.472649 8.27855,-8.931195 -0.55192,-0.504243 -7.88061,9.156435 c 0.045,0.08864 0.0974,0.183092 0.15398,0.279003 z"
       id="path64" />
    <path
       inkscape:connector-curvature="0"
       style="fill:#8fb9cf;stroke-width:0.26458332"
       d="m 122.71722,65.52897 c 0.53473,0.688817 1.08215,1.307862 1.60655,1.830997 h 0.002 c 1.338,1.335457 2.53048,2.047504 2.99112,1.68857 0.64188,-0.499877 -0.37492,-2.88454 -2.27198,-5.327306 -1.89733,-2.442792 -3.95711,-4.01947 -4.59925,-3.519593 -0.46196,0.358934 -0.0667,1.690053 0.89641,3.317584 0.37624,0.637963 0.84111,1.322387 1.37557,2.009748 z"
       id="path66" />
    <path
       inkscape:connector-curvature="0"
       style="fill:#8fb9cf;stroke-width:0.26458332"
       d="m 122.79289,71.090062 c 0.0825,-0.06392 0.0971,-0.184547 0.0333,-0.267362 -0.064,-0.08284 -0.18467,-0.09737 -0.26722,-0.03344 -0.16272,0.126445 -0.85276,-0.104616 -2.01348,-1.262803 l -0.0931,-0.093 c -0.37465,-0.382164 -0.74666,-0.809413 -1.10834,-1.274418 -0.39212,-0.50427 -0.73793,-1.009968 -1.02844,-1.502569 -0.83529,-1.411049 -0.88741,-2.137622 -0.72496,-2.264066 0.0828,-0.06392 0.0974,-0.184547 0.0336,-0.267362 -0.064,-0.08284 -0.18468,-0.09737 -0.26749,-0.03344 -0.6186,0.481013 0.23548,2.088224 0.6305,2.756668 0.29924,0.505698 0.65379,1.024493 1.05463,1.541833 0.40111,0.515858 0.81492,0.988139 1.2319,1.403747 l 0.12065,0.117713 c 0.60854,0.588535 1.82007,1.626099 2.39844,1.178503 z"
       id="path68" />
    <path
       inkscape:connector-curvature="0"
       style="fill:#7a9db0;stroke-width:0.26458332"
       d="m 122.71722,65.52897 c 0.53473,0.68879 1.08241,1.307862 1.60682,1.830997 h 0.001 c 0.68423,-0.884979 0.71334,-2.152148 -0.004,-3.076364 -0.71782,-0.924216 -1.95236,-1.20904 -2.97948,-0.765836 0.37624,0.639418 0.84112,1.323842 1.37557,2.011203 z"
       id="path70" />
    <path
       inkscape:connector-curvature="0"
       style="opacity:0.15;fill:#ffffff;stroke-width:0.26458332"
       d="m 122.9191,64.911221 c 0.19024,0.245587 0.47943,0.340043 0.64505,0.210714 0.16537,-0.129328 0.14526,-0.431588 -0.0452,-0.677174 -0.19023,-0.245586 -0.47916,-0.340043 -0.64479,-0.210714 -0.16563,0.127873 -0.14526,0.431588 0.045,0.677174 z"
       id="path72" />
    <path
       inkscape:connector-curvature="0"
       style="fill:#e9928b;stroke-width:0.26458332"
       d="m 113.89945,77.123964 c 0,0 0.0828,-1.758421 0.59849,-2.355638 0.51726,-0.597271 0.95012,-0.488262 0.86149,0 -0.09,0.488209 -0.48366,1.345724 -0.1016,2.157994 z"
       id="path74" />
    <path
       inkscape:connector-curvature="0"
       style="fill:#4a4e73;stroke-width:0.26458332"
       d="m 114.50826,124.90454 v 1.72773 h -4.37409 l -0.39661,-1.72773 z"
       id="path76" />
    <path
       inkscape:connector-curvature="0"
       style="fill:#4a4e73;stroke-width:0.26458332"
       d="m 101.60718,126.63227 h -4.946388 l 0.14394,-1.72773 h 5.325528 z"
       id="path78" />
    <path
       inkscape:connector-curvature="0"
       style="fill:#ffffff;stroke-width:0.26458332"
       d="m 98.382172,129.39002 0.12065,-0.0405 c -0.006,-0.0175 -0.14658,-0.41275 -0.98928,-0.72231 l -0.0437,0.11906 c 0.77576,0.28496 0.91097,0.6395 0.91229,0.64373 z"
       id="path80" />
    <path
       inkscape:connector-curvature="0"
       style="fill:#ffffff;stroke-width:0.26458332"
       d="m 97.429142,129.8668 0.12198,-0.032 c -0.007,-0.0262 -0.17569,-0.6395 -0.87445,-0.83264 l -0.0333,0.12197 c 0.62759,0.17304 0.77999,0.7194 0.78581,0.74268 z"
       id="path82" />
    <path
       inkscape:connector-curvature="0"
       style="fill:#ffffff;stroke-width:0.26458332"
       d="m 96.268682,129.85675 0.12621,-0.0116 c -0.001,-0.0146 -0.0347,-0.37042 -0.26565,-0.61172 l -0.0916,0.087 c 0.19897,0.20928 0.23099,0.5334 0.23099,0.53631 z"
       id="path84" />
    <path
       inkscape:connector-curvature="0"
       style="fill:#ffffff;stroke-width:0.26458332"
       d="m 112.93082,128.95848 c 0.63605,-0.24553 1.2827,-0.22939 1.28852,-0.22939 l 0.004,-0.12647 c -0.0291,-0.002 -0.6784,-0.0175 -1.338,0.23839 z"
       id="path86" />
    <path
       inkscape:connector-curvature="0"
       style="fill:#ffffff;stroke-width:0.26458332"
       d="m 113.66133,129.42653 c 0.68712,-0.30374 1.20571,-0.33866 1.20994,-0.33999 l -0.007,-0.12647 c -0.022,0.001 -0.54345,0.0362 -1.2536,0.35005 z"
       id="path88" />
    <path
       inkscape:connector-curvature="0"
       style="fill:#ffffff;stroke-width:0.26458332"
       d="m 114.76676,129.6546 c 0.19473,-0.17594 0.72205,-0.25717 0.72787,-0.25717 l -0.019,-0.12515 c -0.023,0.003 -0.56939,0.0886 -0.79296,0.28919 z"
       id="path90" />
    <g
       transform="matrix(-0.26458333,0,0,0.26458333,187.04008,48.644743)"
       style="opacity:0.65"
       id="g94">
      <path
         style="opacity:0.65;fill:#379690"
         inkscape:connector-curvature="0"
         d="m 286.308,133.14 c -1.664,4.317 -2.207,12.352 -2.207,12.352 0,0 -0.006,0.005 -0.017,0.016 -0.461,0.357 -12.188,9.326 -18.222,3.515 -0.873,-0.84 -1.532,-2.01 -2.021,-3.421 3.338,0.461 6.193,3.976 10.147,-0.105 6.138,-6.349 12.32,-12.357 12.32,-12.357 z"
         id="path92" />
    </g>
    <path
       inkscape:connector-curvature="0"
       style="fill:#e9928b;stroke-width:0.26458332"
       d="m 107.43383,71.366604 c 0,0 1.7317,4.756177 0.41699,5.716879 -1.31472,0.959115 -3.42107,-1.230842 -3.42107,-1.230842 0,0 -0.89641,0.04207 -1.37715,-0.688975 -0.47943,-0.729403 0.35454,-1.050554 0.72919,-0.81661 0.37491,0.232516 0.81359,-0.122052 0.52149,-1.018672 -0.29183,-0.896594 -0.12488,-0.938742 0.43868,-0.813752 0.56515,0.123507 2.62943,-0.898076 2.69187,-1.148028 z"
       id="path96" />
    <path
       inkscape:connector-curvature="0"
       style="fill:#4a4e73;stroke-width:0.26458332"
       d="m 97.840572,124.92888 c 1.84203,-13.76442 4.893998,-24.25197 4.924418,-24.35648 l -0.36459,-0.10769 c -0.0304,0.10478 -3.091388,10.62144 -4.936068,24.41337 z"
       id="path98" />
    <path
       inkscape:connector-curvature="0"
       style="fill:#adccc7;stroke-width:0.26458332"
       d="m 95.050431,130.65076 c 0,0 0.0135,-8.13832 -8.89503,-4.18042 0,0 -1.95845,-7.0059 -7.08792,-6.67464 -5.1308,0.33126 -5.62742,6.96119 -5.62742,6.96119 0,0 -7.02628,-3.57241 -10.79553,3.67268 z"
       id="path194" />
    <path
       inkscape:connector-curvature="0"
       style="fill:#6eab9c;stroke-width:0.26458332"
       d="m 80.043531,130.36183 -0.21881,-0.0302 c 0.59319,-4.23836 -1.68884,-7.27762 -1.71186,-7.30805 l 0.17516,-0.13415 c 0.023,0.0304 2.36061,3.14352 1.75551,7.47237 z"
       id="path196" />
    <path
       inkscape:connector-curvature="0"
       style="fill:#6eab9c;stroke-width:0.26458332"
       d="m 80.123431,127.76098 -0.17886,-0.13044 c 0.0204,-0.0291 2.1045,-2.8956 2.45957,-4.69768 l 0.21643,0.0423 c -0.3638,1.85156 -2.41036,4.66752 -2.49714,4.78579 z"
       id="path198" />
    <path
       inkscape:connector-curvature="0"
       style="fill:#6eab9c;stroke-width:0.26458332"
       d="m 80.024211,129.26328 c -1.62719,-0.1016 -3.06626,-2.02803 -3.12658,-2.11005 l 0.17754,-0.1307 c 0.0145,0.0196 1.4388,1.92537 2.96227,2.02089 z"
       id="path200" />
    <path
       inkscape:connector-curvature="0"
       style="fill:#6eab9c;stroke-width:0.26458332"
       d="m 85.243381,130.33273 0.29581,-0.21272 c 0.0278,-0.0204 2.84876,-2.0193 5.86793,-2.16086 l 0.0109,0.22014 c -2.36432,0.1098 -4.6101,1.38985 -5.42687,1.90579 l 2.92973,-0.1016 0.007,0.22013 z"
       id="path202" />
    <path
       inkscape:connector-curvature="0"
       style="fill:#6eab9c;stroke-width:0.26458332"
       d="m 87.562721,129.18841 -0.20902,-0.0714 c 0.46408,-1.35229 1.44251,-2.63075 1.48352,-2.68526 l 0.17515,0.13414 c -0.01,0.0132 -0.99774,1.30519 -1.44965,2.62255 z"
       id="path204" />
    <path
       inkscape:connector-curvature="0"
       style="fill:#6eab9c;stroke-width:0.26458332"
       d="m 73.389251,130.2941 c -0.0217,-0.0183 -2.20953,-1.85632 -4.64978,-2.7133 l 0.0725,-0.2077 c 2.4802,0.86995 4.69688,2.73368 4.7199,2.75167 z"
       id="path206" />
    <path
       inkscape:connector-curvature="0"
       style="fill:#6eab9c;stroke-width:0.26458332"
       d="m 67.700451,129.65011 -0.10028,-0.19712 c 0.064,-0.0325 1.60549,-0.80486 4.44103,-0.40957 l -0.0302,0.21854 c -2.76172,-0.38311 -4.29604,0.38074 -4.31059,0.38815 z"
       id="path208" />
    <path
       inkscape:connector-curvature="0"
       style="fill:#edf6f5;stroke-width:0.26458332"
       d="m 78.529581,75.024998 h -22.49964 c 0,0 1.54758,-3.45395 5.11863,-2.024274 0,0 1.30969,-3.572404 4.40478,-3.155473 3.0951,0.416956 3.69068,2.572966 3.69068,2.572966 0,0 3.33322,-1.32334 6.54791,1.357154 0,0 2.61911,-0.298476 2.73764,1.249627 z"
       id="path314" />
    <path
       inkscape:connector-curvature="0"
       style="fill:#edf6f5;stroke-width:0.26458332"
       d="m 152.61291,99.631275 h -22.49963 c 0,0 1.54754,-3.453871 5.11862,-2.024327 0,0 1.30969,-3.572404 4.40479,-3.155421 3.09509,0.416983 3.69067,2.572808 3.69067,2.572808 0,0 3.33322,-1.323181 6.54791,1.357313 0,0 2.61911,-0.29845 2.73764,1.249627 z"
       id="path316" />
  </g>
</svg>
